<svg width="136" height="136" viewBox="0 0 136 136" fill="none" xmlns="http://www.w3.org/2000/svg">
<g clip-path="url(#clip0_58665_34537)">
<rect width="136" height="136" rx="68" fill="#E8DEF8"/>
<rect width="136" height="136" fill="#4A4459" fill-opacity="0.1"/>
<path d="M61.333 77.9999L67.9997 72.9166L74.6663 77.9999L72.1663 69.7499L78.833 64.9999H70.6663L67.9997 56.3333L65.333 64.9999H57.1663L63.833 69.7499L61.333 77.9999ZM67.9997 84.6666C65.6941 84.6666 63.5275 84.2291 61.4997 83.3541C59.4719 82.4791 57.708 81.2916 56.208 79.7916C54.708 78.2916 53.5205 76.5277 52.6455 74.4999C51.7705 72.4721 51.333 70.3055 51.333 67.9999C51.333 65.6944 51.7705 63.5277 52.6455 61.4999C53.5205 59.4721 54.708 57.7083 56.208 56.2083C57.708 54.7083 59.4719 53.5208 61.4997 52.6458C63.5275 51.7708 65.6941 51.3333 67.9997 51.3333C70.3052 51.3333 72.4719 51.7708 74.4997 52.6458C76.5275 53.5208 78.2913 54.7083 79.7913 56.2083C81.2913 57.7083 82.4788 59.4721 83.3538 61.4999C84.2288 63.5277 84.6663 65.6944 84.6663 67.9999C84.6663 70.3055 84.2288 72.4721 83.3538 74.4999C82.4788 76.5277 81.2913 78.2916 79.7913 79.7916C78.2913 81.2916 76.5275 82.4791 74.4997 83.3541C72.4719 84.2291 70.3052 84.6666 67.9997 84.6666Z" fill="#4A4459"/>
</g>
<defs>
<clipPath id="clip0_58665_34537">
<rect width="136" height="136" rx="68" fill="white"/>
</clipPath>
</defs>
</svg>
