<svg xmlns="http://www.w3.org/2000/svg" viewBox="0 0 236 210" width="236" height="210" role="img" aria-label="Button/Text layout wireframe">
  <title>Button/Text — layout wireframe (slots + tokens)</title>
  <rect width="236" height="210" fill="#ffffff"/>
  <g>
    <rect x="0" y="0" width="236" height="210" fill="none" fill-opacity="0" stroke="#5B6470" stroke-width="1" stroke-opacity="0.5"/>
  </g>
  <g>
    <rect x="0" y="0" width="236" height="210" fill="none" fill-opacity="0" stroke="#2E7D6B" stroke-width="1" stroke-opacity="0.5"/>
  </g>
  <g>
    <rect x="0" y="0" width="236" height="210" fill="none" fill-opacity="0" stroke="#8E6BA8" stroke-width="1" stroke-opacity="0.5"/>
  </g>
  <g>
    <rect x="42" y="42" width="152" height="126" fill="none" fill-opacity="0" stroke="#B0813B" stroke-width="1" stroke-opacity="0.5"/>
  </g>
  <g>
    <path d="M94.5,53 H141.5 A52.5,52.5 0 0 1 194,105.5 V105.5 A52.5,52.5 0 0 1 141.5,158 H94.5 A52.5,52.5 0 0 1 42,105.5 V105.5 A52.5,52.5 0 0 1 94.5,53 Z" fill="none" fill-opacity="0" stroke="#3B72A8" stroke-width="1.5" stroke-opacity="1"/>
  </g>
  <g>
    <rect x="74" y="74" width="88" height="63" fill="none" fill-opacity="0" stroke="#A85B6B" stroke-width="1" stroke-opacity="0.5"/>
  </g>
  <g>
    <rect x="84" y="79" width="69" height="53" fill="none" fill-opacity="0" stroke="#4F8A4A" stroke-width="1" stroke-opacity="0.5"/>
  </g>
</svg>
