<svg xmlns="http://www.w3.org/2000/svg" width="551" height="2100" viewBox="0 0 551 2100"><rect x="0" y="0" width="551" height="2100" fill="none" stroke="#5B6470" stroke-width="1"/><rect x="0" y="0" width="551" height="2100" fill="none" stroke="#5B6470" stroke-width="1"/><rect x="53" y="53" width="414" height="86" fill="none" stroke="#5B6470" stroke-width="1"/><rect x="53" y="53" width="131" height="234" fill="none" stroke="#5B6470" stroke-width="1"/><rect x="61" y="61" width="115" height="165" fill="none" stroke="#5B6470" stroke-width="1"/><rect x="53" y="340" width="131" height="242" fill="none" stroke="#5B6470" stroke-width="1"/><rect x="61" y="348" width="115" height="165" fill="none" stroke="#5B6470" stroke-width="1"/><rect x="53" y="635" width="131" height="215" fill="none" stroke="#5B6470" stroke-width="1"/><rect x="61" y="643" width="115" height="165" fill="none" stroke="#5B6470" stroke-width="1"/><rect x="53" y="903" width="131" height="210" fill="none" stroke="#5B6470" stroke-width="1"/><rect x="61" y="911" width="115" height="165" fill="none" stroke="#5B6470" stroke-width="1"/><rect x="210" y="53" width="131" height="215" fill="none" stroke="#5B6470" stroke-width="1"/><rect x="218" y="61" width="115" height="165" fill="none" stroke="#5B6470" stroke-width="1"/><rect x="210" y="321" width="131" height="223" fill="none" stroke="#5B6470" stroke-width="1"/><rect x="218" y="329" width="115" height="165" fill="none" stroke="#5B6470" stroke-width="1"/><rect x="210" y="597" width="131" height="242" fill="none" stroke="#5B6470" stroke-width="1"/><rect x="218" y="605" width="115" height="165" fill="none" stroke="#5B6470" stroke-width="1"/><rect x="210" y="892" width="131" height="231" fill="none" stroke="#5B6470" stroke-width="1"/><rect x="218" y="900" width="115" height="165" fill="none" stroke="#5B6470" stroke-width="1"/><rect x="367" y="53" width="129" height="215" fill="none" stroke="#5B6470" stroke-width="1"/><rect x="375" y="61" width="113" height="199" fill="none" stroke="#5B6470" stroke-width="1"/><rect x="367" y="321" width="129" height="228" fill="none" stroke="#5B6470" stroke-width="1"/><rect x="375" y="329" width="113" height="212" fill="none" stroke="#5B6470" stroke-width="1"/><rect x="367" y="602" width="129" height="231" fill="none" stroke="#5B6470" stroke-width="1"/><rect x="375" y="610" width="113" height="215" fill="none" stroke="#5B6470" stroke-width="1"/><rect x="367" y="886" width="129" height="226" fill="none" stroke="#5B6470" stroke-width="1"/><rect x="375" y="894" width="113" height="210" fill="none" stroke="#5B6470" stroke-width="1"/></svg>