<svg xmlns="http://www.w3.org/2000/svg" viewBox="0 0 903 610" width="903" height="610" role="img" aria-label="Dialog/Basic layout wireframe">
  <title>Dialog/Basic — layout wireframe (slots + tokens)</title>
  <rect width="903" height="610" fill="#ffffff"/>
  <g>
    <rect x="0" y="0" width="903" height="610" fill="none" fill-opacity="0" stroke="#5B6470" stroke-width="1" stroke-opacity="0.5"/>
  </g>
  <g>
    <rect x="0" y="0" width="903" height="610" fill="none" fill-opacity="0" stroke="#2E7D6B" stroke-width="1" stroke-opacity="0.5"/>
  </g>
  <g>
    <rect x="0" y="0" width="903" height="610" fill="none" fill-opacity="0" stroke="#8E6BA8" stroke-width="1" stroke-opacity="0.5"/>
  </g>
  <g>
    <rect x="42" y="42" width="819" height="526" fill="none" fill-opacity="0" stroke="#B0813B" stroke-width="1" stroke-opacity="0.5"/>
  </g>
  <g>
    <path d="M115.5,42 H787.5 A73.5,73.5 0 0 1 861,115.5 V494.5 A73.5,73.5 0 0 1 787.5,568 H115.5 A73.5,73.5 0 0 1 42,494.5 V115.5 A73.5,73.5 0 0 1 115.5,42 Z" fill="#ECE6F0" fill-opacity="1" stroke="#3B72A8" stroke-width="1.5" stroke-opacity="1"/>
    <text x="45" y="54" font-family="system-ui, sans-serif" font-size="9" fill="#3B72A8">#FFECE6F0</text>
  </g>
  <g>
    <rect x="105" y="105" width="693" height="400" fill="none" fill-opacity="0" stroke="#A85B6B" stroke-width="1" stroke-opacity="0.5"/>
  </g>
  <g>
    <rect x="105" y="105" width="463" height="84" fill="none" fill-opacity="0" stroke="#4F8A4A" stroke-width="1" stroke-opacity="0.5"/>
  </g>
  <g>
    <rect x="105" y="231" width="693" height="106" fill="none" fill-opacity="0" stroke="#4F8A4A" stroke-width="1" stroke-opacity="0.5"/>
  </g>
  <g>
    <rect x="105" y="379" width="693" height="126" fill="none" fill-opacity="0" stroke="#4F8A4A" stroke-width="1" stroke-opacity="0.5"/>
  </g>
  <g>
    <path d="M502.5,390 H575.5 A52.5,52.5 0 0 1 628,442.5 V442.5 A52.5,52.5 0 0 1 575.5,495 H502.5 A52.5,52.5 0 0 1 450,442.5 V442.5 A52.5,52.5 0 0 1 502.5,390 Z" fill="none" fill-opacity="0" stroke="#7A7A33" stroke-width="1.5" stroke-opacity="1"/>
  </g>
  <g>
    <rect x="482" y="411" width="114" height="63" fill="none" fill-opacity="0" stroke="#5B6470" stroke-width="1" stroke-opacity="0.5"/>
  </g>
  <g>
    <rect x="482" y="416" width="114" height="53" fill="none" fill-opacity="0" stroke="#2E7D6B" stroke-width="1" stroke-opacity="0.5"/>
  </g>
  <g>
    <path d="M680.5,390 H745.5 A52.5,52.5 0 0 1 798,442.5 V442.5 A52.5,52.5 0 0 1 745.5,495 H680.5 A52.5,52.5 0 0 1 628,442.5 V442.5 A52.5,52.5 0 0 1 680.5,390 Z" fill="none" fill-opacity="0" stroke="#7A7A33" stroke-width="1.5" stroke-opacity="1"/>
  </g>
  <g>
    <rect x="660" y="411" width="106" height="63" fill="none" fill-opacity="0" stroke="#5B6470" stroke-width="1" stroke-opacity="0.5"/>
  </g>
  <g>
    <rect x="660" y="416" width="106" height="53" fill="none" fill-opacity="0" stroke="#2E7D6B" stroke-width="1" stroke-opacity="0.5"/>
  </g>
</svg>
