<svg xmlns="http://www.w3.org/2000/svg" width="438" height="1001" viewBox="0 0 438 1001"><rect x="0" y="0" width="438" height="1001" fill="none" stroke="#5B6470" stroke-width="1"/><rect x="0" y="0" width="438" height="1001" fill="none" stroke="#5B6470" stroke-width="1"/><rect x="53" y="53" width="116" height="263" fill="none" stroke="#5B6470" stroke-width="1"/><rect x="61" y="61" width="96" height="55" fill="none" stroke="#5B6470" stroke-width="1"/><rect x="53" y="369" width="116" height="263" fill="none" stroke="#5B6470" stroke-width="1"/><rect x="61" y="377" width="98" height="55" fill="none" stroke="#5B6470" stroke-width="1"/><rect x="53" y="685" width="116" height="263" fill="none" stroke="#5B6470" stroke-width="1"/><rect x="61" y="693" width="100" height="55" fill="none" stroke="#5B6470" stroke-width="1"/><rect x="195" y="53" width="76" height="263" fill="none" stroke="#5B6470" stroke-width="1"/><rect x="203" y="61" width="60" height="55" fill="none" stroke="#5B6470" stroke-width="1"/><rect x="195" y="369" width="76" height="263" fill="none" stroke="#5B6470" stroke-width="1"/><rect x="203" y="377" width="31" height="55" fill="none" stroke="#5B6470" stroke-width="1"/><rect x="195" y="685" width="76" height="263" fill="none" stroke="#5B6470" stroke-width="1"/><rect x="203" y="693" width="57" height="55" fill="none" stroke="#5B6470" stroke-width="1"/><rect x="297" y="53" width="88" height="263" fill="none" stroke="#5B6470" stroke-width="1"/><rect x="305" y="61" width="30" height="55" fill="none" stroke="#5B6470" stroke-width="1"/><rect x="297" y="369" width="88" height="263" fill="none" stroke="#5B6470" stroke-width="1"/><rect x="305" y="377" width="60" height="55" fill="none" stroke="#5B6470" stroke-width="1"/><rect x="297" y="685" width="88" height="263" fill="none" stroke="#5B6470" stroke-width="1"/><rect x="305" y="693" width="72" height="55" fill="none" stroke="#5B6470" stroke-width="1"/></svg>